<svg id="Layer_1" data-name="Layer 1" xmlns="http://www.w3.org/2000/svg" viewBox="0 0 145.7 145.7"><defs><style>.cls-2{fill:#fff}</style></defs><circle cx="72.85" cy="72.85" r="72.85" fill="#173a34"/><path class="cls-2" d="M3329 653.31v-51.72h-12.71v-11.2h-27.49v11.2h-12.71v51.73h-5v5H3334v-5h-5zm-35.11-57.89h17.37v17.37h-17.37v-17.37zm15 57.89v-14.22h-12.59v14.22h-15.1v-46.69h7.68v11.2h27.44v-11.2h7.68v46.69h-15.1z" transform="translate(-3229.67 -551.52)"/><path class="cls-2" d="M55.48 68.95h7.68v5.03h-7.68zM69.08 68.95h7.68v5.03h-7.68zM82.67 68.95h7.68v5.03h-7.68zM55.48 77.01h7.68v5.03h-7.68zM69.08 77.01h7.68v5.03h-7.68zM82.67 77.01h7.68v5.03h-7.68zM55.48 85.06h7.68v5.03h-7.68zM82.67 85.06h7.68v5.03h-7.68zM55.48 92.99h7.68v5.03h-7.68zM82.67 92.99h7.68v5.03h-7.68zM75.37 46.3h-5.04v3.77h-3.77v5.04h3.77v3.77h5.04v-3.77h3.77v-5.04h-3.77V46.3z"/></svg>