<svg id="Layer_1" data-name="Layer 1" xmlns="http://www.w3.org/2000/svg" viewBox="0 0 145.7 145.7"><defs><style>.cls-2{fill:#fff}</style></defs><circle cx="72.85" cy="72.85" r="72.85" fill="#173a34"/><path class="cls-2" d="M2498.29 636.48h27v-27h-27v27zm24.27-24.27v21.58H2501V612.2h21.58z" transform="translate(-2438.92 -551.52)"/><path class="cls-2" d="M2553 614.36a4.06 4.06 0 0 0-1.89-2.52 4 4 0 0 0-3.06-.45 4.06 4.06 0 0 0-2.79 2.61h-14.83v-4.49h7.57a4.17 4.17 0 0 0 4.85 2.61 4.06 4.06 0 0 0 2.52-1.89 4 4 0 0 0 .45-3.06 4.06 4.06 0 0 0-1.89-2.52 4 4 0 0 0-3.06-.45 4.06 4.06 0 0 0-2.79 2.61h-7.64v-2.7h-9.89V592h12.14a3.94 3.94 0 0 0 4.76 2.61 4 4 0 1 0-1.89-7.82 4.19 4.19 0 0 0-2.88 2.61h-14.65v14.74h-5.39v-6a4.2 4.2 0 0 0 2.16-1.8 4 4 0 0 0-4.49-5.93 4.06 4.06 0 0 0-2.52 1.89 4 4 0 0 0-.45 3.06 4.06 4.06 0 0 0 2.61 2.79v6h-4.49V590.9a4.17 4.17 0 0 0 2.61-4.85 4.06 4.06 0 0 0-1.89-2.52 4 4 0 0 0-3.06-.45 4.06 4.06 0 0 0-2.52 1.89 4 4 0 0 0-.45 3.06 4.06 4.06 0 0 0 2.61 2.79V604h-4.49v-6a4.17 4.17 0 0 0 2.61-4.85 4.06 4.06 0 0 0-1.89-2.52 4 4 0 0 0-3.06-.45 4.06 4.06 0 0 0-2.52 1.89 4 4 0 0 0-.45 3.06 4.06 4.06 0 0 0 2.61 2.79v6h-2.7v10.52h-11.69v-11.77a3.94 3.94 0 0 0 2.61-4.76 4 4 0 1 0-7.82 1.89 4.19 4.19 0 0 0 2.61 2.88v14.47H2493v5.39h-7.46a4.2 4.2 0 0 0-1.8-2.16 4 4 0 0 0-3.06-.45 4.06 4.06 0 0 0-2.52 1.89 4 4 0 0 0-.45 3.06 4.06 4.06 0 0 0 1.89 2.52 4 4 0 0 0 3.06.45 4.06 4.06 0 0 0 2.79-2.61h7.46v4.49h-14.56a4.17 4.17 0 0 0-4.85-2.61 4.07 4.07 0 0 0 1 8 4 4 0 0 0 3.78-2.7h14.65v4.49h-7.37a4.2 4.2 0 0 0-1.8-2.16 4 4 0 0 0-5.93 4.49 4.06 4.06 0 0 0 1.89 2.52 4 4 0 0 0 3.06.45 4.06 4.06 0 0 0 2.79-2.61h7.37v2.25h10.34v13h-11.87a3.94 3.94 0 0 0-4.76-2.61 4 4 0 0 0 1.89 7.82 4.19 4.19 0 0 0 2.88-2.61h14.56v-15.67h5.3v8.81a4.17 4.17 0 0 0-2.61 4.85 4.06 4.06 0 0 0 1.89 2.52 4 4 0 0 0 5.93-4.49 4.06 4.06 0 0 0-2.61-2.79V642h4.41v15.91a4.17 4.17 0 0 0-2.61 4.85 4.06 4.06 0 0 0 1.89 2.52 4.18 4.18 0 0 0 2.07.54 3.37 3.37 0 0 0 1-.09 4.06 4.06 0 0 0 2.52-1.89 4 4 0 0 0 .45-3.06 4.06 4.06 0 0 0-2.61-2.79v-15.94h4.41v8.72a4.2 4.2 0 0 0-2.16 1.8 4 4 0 0 0-.45 3.06 4.06 4.06 0 0 0 1.89 2.52 4 4 0 0 0 5.93-4.49 4.06 4.06 0 0 0-2.61-2.79v-8.72h2.25v-9.89h13.93V644a3.94 3.94 0 0 0-2.61 4.76 4 4 0 1 0 7.82-1.89 4.19 4.19 0 0 0-2.61-2.88v-14.71h-16.36v-5.39h7.57a4.2 4.2 0 0 0 1.8 2.16 4 4 0 0 0 3.06.45 4.06 4.06 0 0 0 2.52-1.89 3.69 3.69 0 0 0 .45-3.06A4.06 4.06 0 0 0 2544 619a3.69 3.69 0 0 0-3.06-.45 4.06 4.06 0 0 0-2.79 2.61h-7.64v-4.46h14.83a4.17 4.17 0 0 0 4.85 2.61 4.06 4.06 0 0 0 2.52-1.89 4.51 4.51 0 0 0 .29-3.06zm-2.52 1a1.35 1.35 0 1 1-1.35-1.35 1.38 1.38 0 0 1 1.3 1.34zm-3.6 32.36a1.35 1.35 0 1 1-1.35-1.35 1.38 1.38 0 0 1 1.31 1.34zm-19.78 5.39a1.35 1.35 0 1 1-1.35 1.35 1.38 1.38 0 0 1 1.31-1.35zm-7.19 7.19a1.35 1.35 0 1 1-1.35 1.35 1.38 1.38 0 0 1 1.31-1.35zm-41.35-61.58a1.35 1.35 0 1 1 1.35 1.35 1.38 1.38 0 0 1-1.4-1.35zm17.08 40.45v-32.36H2528v32.36h-32.4zm1.35-43.6a1.35 1.35 0 1 1 1.35-1.35 1.38 1.38 0 0 1-1.4 1.35zm7.19-7.19a1.35 1.35 0 1 1 1.35-1.35 1.38 1.38 0 0 1-1.39 1.35zm5.84 5.84a1.35 1.35 0 1 1 1.35 1.35 1.38 1.38 0 0 1-1.37-1.35zm2.7 58.88a1.35 1.35 0 1 1-1.35 1.35 1.38 1.38 0 0 1 1.31-1.34zm27.87-44.95a1.35 1.35 0 1 1 1.35 1.35 1.38 1.38 0 0 1-1.39-1.34zm-5.39-17.53a1.35 1.35 0 1 1 1.35 1.35 1.38 1.38 0 0 1-1.4-1.34zm-52.2 33.27a1.35 1.35 0 1 1-1.35-1.35 1.38 1.38 0 0 1 1.35 1.35zm-7.19 7.19a1.35 1.35 0 1 1-1.35-1.35 1.38 1.38 0 0 1 1.36 1.35zm7.19 7.19a1.35 1.35 0 1 1-1.35-1.35 1.38 1.38 0 0 1 1.35 1.35zm5.84 18a1.35 1.35 0 1 1-1.35-1.35 1.38 1.38 0 0 1 1.36 1.33zm51.69-33.71a1.35 1.35 0 1 1 1.35 1.35 1.38 1.38 0 0 1-1.33-1.37z" transform="translate(-2438.92 -551.52)"/></svg>