<svg id="Layer_1" data-name="Layer 1" xmlns="http://www.w3.org/2000/svg" viewBox="0 0 145.7 145.7"><defs><style>.cls-2{fill:#f9f9f9}</style></defs><circle cx="72.85" cy="72.85" r="72.85" fill="#173a34"/><path class="cls-2" d="M1008.47 212.71v2.91h-21.54v-.49c0-4.56-.78-9.7-5-11.06 0 0-1.65-.68-4.66-1.65 1.36-.49-.87.29 0 0 2.91-1 4.07-6.21 2.52-7.76a18.05 18.05 0 0 1-3-5.14.62.62 0 0 0-.49-.49 3.4 3.4 0 0 1-1.65-2.43c-.29-1.55 0-2.72.87-2.91h.29c0-2.23-.78-4.56-.1-6.5 1-3.4 4.27-6.4 9.6-6.4s8.54 3.1 9.6 6.4c.68 2.13-.19 4.27-.1 6.5h.29c.78.1 1.26 1.46.87 2.91a3 3 0 0 1-1.67 2.4.62.62 0 0 0-.49.49c-.68 1.55-1.46 3.69-3 5.14-1.55 1.65-.19 6.79 2.52 7.76s10 3.1 10 3.1a7.51 7.51 0 0 1 5.14 7.22zm-69.84-.19v2.91h46.17v-2.91a7.48 7.48 0 0 0-5.24-7.08s-7.18-2.13-10-3.1-4.07-6-2.52-7.66a14.68 14.68 0 0 0 2.91-5.14 1.17 1.17 0 0 1 .49-.49 3.27 3.27 0 0 0 1.55-2.43c.29-1.46 0-2.72-.87-2.91h-.29c0-2.13.78-4.46.1-6.4-1.07-3.4-4.27-6.4-9.41-6.4s-8.44 3-9.41 6.4c-.58 2 .19 4.27.1 6.4h-.29c-.78.1-1.16 1.36-.87 2.91a3.91 3.91 0 0 0 1.55 2.43 1.17 1.17 0 0 1 .49.49 15.41 15.41 0 0 0 2.91 5.14c1.55 1.65.29 6.69-2.52 7.66s-10 3.1-10 3.1a7.67 7.67 0 0 0-4.86 7.07z" transform="translate(-888.37 -120.6)"/><path class="cls-2" d="M956.76 196.7l9.41-1.36.29.68a8.34 8.34 0 0 0 7.86.78c-4.27-1.36-1.26-8.83-1.65-17.95s-7.28-7.28-7.28-7.28-2.43-3.78-10-1.36-6.11 15.81-5.63 19.59 1.55 5.43-1.55 7a6.36 6.36 0 0 0 8.54-.1 19.34 19.34 0 0 0-.39-3.1M918.93 205.24s7.28-2.23 10-3.1 4.07-6.11 2.52-7.76a16.84 16.84 0 0 1-3-5.14.77.77 0 0 0-.49-.49 3.16 3.16 0 0 1-1.65-2.43c-.29-1.46.1-2.72.87-2.91h.29c.1-2.23-.78-4.37-.1-6.5 1.07-3.3 4.27-6.4 9.6-6.4s8.63 3 9.6 6.4c.68 1.94-.1 4.27-.1 6.5h.29c.87.1 1.26 1.36.87 2.91a3.21 3.21 0 0 1-1.65 2.43.77.77 0 0 0-.49.49 16.84 16.84 0 0 1-3 5.14c-1.55 1.55-.29 6.69 2.52 7.76.87.29-1.36-.49 0 0-3 1-4.66 1.65-4.66 1.65-4.27 1.36-5 6.5-5 11.06v.49H914v-2.91a7.74 7.74 0 0 1 4.93-7.19z" transform="translate(-888.37 -120.6)"/><path class="cls-2" d="M43.75 75.81l9.31-1.36"/><path class="cls-2" d="M942.89 172.35s-7.37-7.08-14.84 1.94 1.94 22.12-.49 24.44a14.87 14.87 0 0 1-3.88 2.81s13.77 1.94 17.95-2.81 4.95-16.49 4.95-17.85" transform="translate(-888.37 -120.6)"/></svg>