<svg id="Layer_1" data-name="Layer 1" xmlns="http://www.w3.org/2000/svg" viewBox="0 0 145.7 145.7"><defs><style>.cls-2{fill:#f9f9f9}</style></defs><circle cx="72.85" cy="72.85" r="72.85" fill="#173a34"/><path class="cls-2" d="M628.24 188.24l-12-19a2.27 2.27 0 0 0-3.15-.7l-5.28 3.38a2.27 2.27 0 0 0-.7 3.12l12 19a2.27 2.27 0 0 0 3.15.7l5.28-3.38a2.27 2.27 0 0 0 .7-3.12zM567.94 208.53l.89-1.31a2.56 2.56 0 0 0-2.11-4 2.58 2.58 0 0 0-2.13 1.12l-2.6 3.8-.07.12-3.06 4.49c0 .06-.1.11-.14.17l-.66 1a2.58 2.58 0 0 0 .64 3.55 2.57 2.57 0 0 0 3.61-.65l.45-.66c.07-.13.13-.28.22-.4l4.89-7.11zM606.65 178.35a1.52 1.52 0 0 0-1.86-.6l-2 .83a3.89 3.89 0 0 1-2.26.2l-7-1.46a28.62 28.62 0 0 0-11.11-.13l-6.56 1.22a6.85 6.85 0 0 0-4.18 2.56l-5.59 7.28a1.73 1.73 0 0 0 .33 2.43 1.74 1.74 0 0 0 1.84.15l11.89-6.21a3.9 3.9 0 0 1 3.92.18l25.58 16.58a5.27 5.27 0 0 1 .78.62l6.08-5.75a1.52 1.52 0 0 0 .24-1.92zM577.13 215.84a2.07 2.07 0 0 0-1.32-.48h-.29a2.06 2.06 0 0 0-1.31.74l-2.7 3.9a2.09 2.09 0 0 0 3.63 2l2.38-3.42a2.1 2.1 0 0 0-.39-2.74zM572.42 214.89l1.47-2.14a2.58 2.58 0 0 0-.5-3.45 2.54 2.54 0 0 0-1.61-.57h-.38a2.54 2.54 0 0 0-1.68 1l-5.18 7.6a2.56 2.56 0 0 0 1.13 3.31 2.57 2.57 0 0 0 3.34-.81l.73-1.06c.07-.12.12-.25.2-.36l2.38-3.42z" transform="translate(-509.78 -120.6)"/><path class="cls-2" d="M608.45 203.18l-25.58-16.58a1.73 1.73 0 0 0-1.74-.08l-11.72 6.13a4.08 4.08 0 0 1-4.11-.11 3.9 3.9 0 0 1-1.75-3.51 4 4 0 0 1 .88-2.22l4.74-6.16-5.11-.81a3.89 3.89 0 0 1-1.18-.39l-1.11-.57a2.89 2.89 0 0 0-3.78 1l-8.44 13.36a2.89 2.89 0 0 0 .14 3.29l4.42 5.83a.33.33 0 0 0 .51 0 4.67 4.67 0 0 1 5.85-.78 4.74 4.74 0 0 1 1.62 1.64.34.34 0 0 0 .58 0 4.87 4.87 0 0 1 6.18-1.71 4.72 4.72 0 0 1 2.49 3.29 4.64 4.64 0 0 1 .07 1.36.33.33 0 0 0 .34.37 4.71 4.71 0 0 1 3 1 4.77 4.77 0 0 1 1.5 5.2.33.33 0 0 0 .26.44 4.27 4.27 0 0 1 3.35 2.93 4.38 4.38 0 0 1-.65 3.82l-.56.8a.34.34 0 0 0 .23.53l6.62 1a7.6 7.6 0 0 0 4.2-.54 1.09 1.09 0 0 0 0-2l-6-3.05a1.08 1.08 0 0 1 1-1.93l8.37 4.25a3.19 3.19 0 0 0 4.15-1.13 2.07 2.07 0 0 0 .41-1.66 2 2 0 0 0-.93-1.35l-1.93-1.18-7.82-4.26a1.08 1.08 0 1 1 1-1.9l10.81 5.89a3.51 3.51 0 0 0 4.58-1.15 2.14 2.14 0 0 0-.69-3l-.78-.47-11.62-7a1.08 1.08 0 0 1 1.11-1.86l11.07 6.62.57.47 2.06 1.23a3.22 3.22 0 0 0 4.34-.95 3.05 3.05 0 0 0-.95-4.1z" transform="translate(-509.78 -120.6)"/><path class="cls-2" d="M560.5 205.1a2.49 2.49 0 0 0-1.14-1.61 2.58 2.58 0 0 0-1.36-.39 2.5 2.5 0 0 0-2.05 1.07l-3.1 4.43a2.52 2.52 0 0 0 .6 3.48l.1.07a2.48 2.48 0 0 0 3.37-.46l3.26-4.77a2.47 2.47 0 0 0 .32-1.82zM557.33 172.62l-5.18-3.27a2.27 2.27 0 0 0-3.13.71l-12 19a2.27 2.27 0 0 0 .71 3.13l5.18 3.27a2.27 2.27 0 0 0 3.13-.71l12-19a2.27 2.27 0 0 0-.71-3.13z" transform="translate(-509.78 -120.6)"/></svg>