<svg id="Layer_1" data-name="Layer 1" xmlns="http://www.w3.org/2000/svg" viewBox="0 0 145.7 145.7"><defs><style>.cls-2{fill:#fff}</style></defs><circle cx="72.85" cy="72.85" r="72.85" fill="#173a34"/><path class="cls-2" d="M2927.78 634l-.53-.11a5.77 5.77 0 0 1-1.36-2.13 24 24 0 0 1-1.1-8.42 76.82 76.82 0 0 1 1-11.12v-2.24-.67c0-.49-.05-1-.1-1.44 0-.25 0-.49-.07-.73 0-.43-.09-.85-.15-1.26 0-.23-.06-.46-.09-.69-.06-.42-.13-.83-.21-1.23 0-.18-.07-.37-.1-.56-.11-.55-.23-1.08-.36-1.59a.53.53 0 0 1 0-.06c-.14-.54-.29-1-.45-1.53l-.15-.43c-.11-.34-.23-.67-.36-1l-.19-.47-.37-.84-.21-.44-.42-.8-.2-.36-.59-1-.06-.09-.69-1-.21-.25-.51-.61-.27-.28-.49-.49-.27-.26-.52-.45-.25-.21c-.22-.17-.44-.34-.67-.49l-.11-.08a9.5 9.5 0 0 0-.79-.5l-.23-.13-.56-.3-.29-.14-.5-.23-.29-.12-.51-.2-.26-.1-.59-.19-.16-.05-.71-.19h-.22l-.47-.1h-.26l-.4-.07h-8.55l-.43.07h-.23l-.52.11h-.18l-.73.2h-.12l-.62.21-.24.09-.53.21-.27.12-.53.25-.27.13-.59.33-.2.11-.8.51-.07.05-.7.52-.24.19-.54.47-.26.25c-.17.16-.34.33-.5.51l-.25.27-.53.62-.19.24c-.24.3-.47.62-.7 1v.08c-.21.31-.41.63-.61 1l-.19.35-.43.81-.2.44-.38.85-.19.46c-.13.32-.25.66-.36 1 0 .14-.1.27-.14.42-.16.49-.31 1-.45 1.54v.06c-.13.51-.25 1-.36 1.59 0 .18-.07.37-.1.55-.07.4-.15.82-.21 1.24 0 .22-.06.45-.09.68-.05.41-.11.83-.15 1.27 0 .24 0 .48-.07.73 0 .47-.07.95-.1 1.44V612.24a77 77 0 0 1 1 11.12 23.82 23.82 0 0 1-1.1 8.42 5.75 5.75 0 0 1-1.36 2.13l-.52.11a11.65 11.65 0 0 0-7 3.74c-1.86 2-3.74 5.09-5.16 10a7.12 7.12 0 0 0 .5 5.22c3.08 5.82 19.25 7.6 32.33 7.6s29.26-1.79 32.33-7.61a7.05 7.05 0 0 0 .75-3.89 9 9 0 0 0-.27-1.35c-1.42-4.89-3.3-8-5.16-10a11.66 11.66 0 0 0-7.22-3.73zm-35.05-22.79a.65.65 0 0 1 .27-.11.83.83 0 0 1 .66.22c.08-.74 1.06-9 7.27-8.45l19 9.77 1.54-1.48h.15c.67.32 1 1.9.64 3.7a5.46 5.46 0 0 1-1.36 3 .87.87 0 0 1-.69.25.67.67 0 0 1-.35-.18 21.59 21.59 0 0 1-6.74 10.22 9 9 0 0 1-11.81 0 21.59 21.59 0 0 1-6.7-10.19.7.7 0 0 1-.34.18.94.94 0 0 1-.8-.35 5.81 5.81 0 0 1-1.25-2.9c-.34-1.72-.09-3.22.51-3.65zm1.47 42.52a1.51 1.51 0 0 1-1 .35h-1.68a1.53 1.53 0 0 1-1.53-1.53v-.11a1.54 1.54 0 0 1 1.52-1.42h1.68a1.5 1.5 0 0 1 .5.09.48.48 0 0 0 .13-.05 8.85 8.85 0 0 0 .19-2.38 12.81 12.81 0 0 0-.92-4.45 1.72 1.72 0 0 1-.7-.75c-1-2.13-2.4-3.51-3.53-3.51s-2.61 1.49-3.62 3.71a1.73 1.73 0 0 1-.81.83 12.49 12.49 0 0 0-.82 4.18 8.27 8.27 0 0 0 .21 2.38.83.83 0 0 0 .18.06 1.55 1.55 0 0 1 .55-.1h1.68a1.53 1.53 0 0 1 1.52 1.35v.12a1.54 1.54 0 0 1-1.53 1.59h-1.68a1.51 1.51 0 0 1-.92-.32 2.91 2.91 0 0 1-2.07-1.29c-.52-.84-.61-1.93-.61-3.79a15.35 15.35 0 0 1 1.06-5.3 1.69 1.69 0 0 1 .1-1.15 12.75 12.75 0 0 1 2.62-3.86 7.21 7.21 0 0 1 1.76-1.27 2.7 2.7 0 0 1 1.09-1.26 8.35 8.35 0 0 1 2.18-4.11 7.72 7.72 0 0 1 5.59-2.6h.4a1.33 1.33 0 0 1 0 2.65h-.4c-2.49 0-4.56 2.36-5.08 4.19a2.68 2.68 0 0 1 .84 1 10 10 0 0 1 4.4 4.95 1.72 1.72 0 0 1 .08 1.29 15.59 15.59 0 0 1 1.1 5.4c.03 2.38.03 4.58-2.48 5.14zm12.94-7.78s-10-9.45-11.62-11.54a2.87 2.87 0 0 1-.62-1.4c.08 0 .27-.09.51-.21l.33-.16a4.05 4.05 0 0 0 2.44-3.5 15.64 15.64 0 0 0 5.15 3.5 10.17 10.17 0 0 0 7.76 0 15.57 15.57 0 0 0 5.1-3.46c0 2.45 2.5 3.53 3.16 3.77a2.85 2.85 0 0 1-.62 1.4c-1.6 2.18-11.59 11.65-11.59 11.65zm16.91 7.25a.54.54 0 0 1-.56.5h-3.06v3.06a.54.54 0 0 1-.5.56h-3a.54.54 0 0 1-.5-.56v-3.06h-3.06a.54.54 0 0 1-.56-.5v-3a.54.54 0 0 1 .56-.5h3.06v-3.06a.53.53 0 0 1 .5-.56h3a.54.54 0 0 1 .5.56v3.06h3.06a.53.53 0 0 1 .56.5v3zm3.71-10.76a4.46 4.46 0 0 1-3.94 2.36 4.48 4.48 0 0 1-2.1-.53 4.45 4.45 0 0 1 .82-8.19 5.57 5.57 0 0 0-3.33-4l-.45-.15h-.25a1.34 1.34 0 0 1 .66-2.5h.24a1.27 1.27 0 0 1 .31.1l.3.1a7.73 7.73 0 0 1 4.5 4.22 9.05 9.05 0 0 1 .74 2.38 4.35 4.35 0 0 1 .65.28 4.47 4.47 0 0 1 1.85 5.96z" transform="translate(-2834.3 -551.52)"/><circle class="cls-2" cx="89.52" cy="88.85" r="2.41"/></svg>