<svg xmlns="http://www.w3.org/2000/svg" width="32" height="32">
  <g data-name="Group 2106">
    <path data-name="Rectangle 821" fill="none" d="M0 0h32v32H0z"/>
    <path data-name="Path 478" d="M20.43 24.23l-.02 2.64v.58l-.03 1.31-.02 1.77v1.02l.01.25c0 .13-.03.16-.16.16h-2.04q-1.16 0-2.31.02l-.6.02h-5.11c-.14 0-.15-.02-.14-.16l.05-.98.04-.73v-.38l.04-.62.02-.43.02-.54.02-.57.06-.96c.02-.32.04-.65.04-.97 0-.2.05-.4.04-.62a3.54 3.54 0 0 1 0-.4l.05-.64.04-1.03.05-.79.02-.53v-.29a.25.25 0 0 0-.08-.2.21.21 0 0 1-.06-.1c-.02-.1-.02-.1-.12-.1l-.57-.04-.9-.07-.5-.01-.24-.03-.3-.03-.64-.03a3.6 3.6 0 0 1-.4-.02c-.3-.05-.6-.03-.89-.05l-.24-.03-1.08-.04-.88-.04a.68.68 0 0 1-.1-.02c-.03 0-.06-.02-.08-.01-.18.06-.35-.03-.52-.01s-.34-.02-.5-.02l-.77-.02-.18-.02a17.2 17.2 0 0 0-.5-.03c-.23 0-.45 0-.67-.02-.13 0-.14-.02-.14-.15v-1.16l-.02-.4L.1 18v-1.3c0-.12-.02-.23-.03-.34l-.02-.74v-.84l-.03-2.52v-.81L0 10.83c0-.11.02-.14.12-.14l.85.04.26.01.42.04.23.02.42.02.36.02.53.02.51.03.53.04.77.04.64.05.26.02.56.03h.1l1.43.09.56.02.11.01.45.04a2.25 2.25 0 0 1 .33.01 2.81 2.81 0 0 0 .47.05c.23 0 .47.02.7.04h.33c.13 0 .18-.05.18-.17l.03-.19.02-.48.07-1.06.03-.45.02-.47c0-.18 0-.37.02-.55.02-.16.05-.31.05-.48l.02-.77.05-1.5c0-.2.04-.4.06-.6l.02-.31v-.2l.05-1v-.36a.12.12 0 0 1 0-.04 1.45 1.45 0 0 0 .05-.47c0-.3 0-.6.03-.9a4.2 4.2 0 0 1 .04-.48 2.48 2.48 0 0 0 .01-.46c0-.25 0-.25.24-.25l3.02-.02c.43 0 .87 0 1.3-.02l1.47-.05.77-.01.9-.01.58-.03c.13 0 .15 0 .15.14l.01.92.02.24.01.15v.8l.04 2.28.05 2.94.02 1.65v1.15c.02.22.04.44.04.67 0 .11.05.16.16.16.4 0 .81 0 1.22-.02l.86-.01 1.78-.02 1.39-.01.7-.03.82-.01H28.42a.34.34 0 0 0 .09 0 2.26 2.26 0 0 1 .7-.04c.26.01.52.02.78.01l1.17-.04c.07 0 .1.01.12.09a.97.97 0 0 1 .01.17v.34a.12.12 0 0 0 0 .02 6.53 6.53 0 0 1 .05.94c.05.74.03 1.48.05 2.22l.06 1.52c0 .33.02.66.04.98s0 .64.02.96c0 .2.03.38.04.57l.01.61.06 1.29a2.63 2.63 0 0 1 0 .35c-.01.1-.04.11-.15.11h-.68l-.36-.02-1.22-.04h-1.63l-2.9-.01H22.11l-1.46.01h-.01c-.18.01-.21.05-.22.22v.22l.01 1.78v.98z" fill="#155750"/>
  </g>
</svg>