<svg xmlns="http://www.w3.org/2000/svg" width="32" height="32">
  <g data-name="Group 2110">
    <path data-name="Rectangle 821" fill="none" d="M0 0h32v32H0z"/>
    <path data-name="Path 484" d="M18.22 8.83l-.06.27c-.03.1-.01.1.06.16l.16.16.28.25a9.18 9.18 0 0 0 .75.64l.44.37.22.15.24.2.43.35.56.46.07.04a1.68 1.68 0 0 1 .28.22 2.17 2.17 0 0 0 .28.23l.42.32.46.35.26.2.19.17c.04.04.02.07 0 .11l-.24.4-.47.74a.43.43 0 0 1-.05.07c-.05.05-.08.05-.14 0l-.52-.34-.18-.14-.3-.2-.46-.3-.14-.11-.08-.06c-.16-.1-.32-.2-.48-.32l-.56-.42-.3-.2-.52-.36-.48-.3-.3-.23-.37-.23-.64-.4-.07-.04c-.08-.04-.1-.04-.15.03l-.17.28-.29.5-.55.98c-.05.09-.04.13.05.2a2.4 2.4 0 0 1 .4.29 1.57 1.57 0 0 0 .2.12c.12.1.25.2.4.3l.7.51.4.31.23.16.4.3.06.04a3.47 3.47 0 0 1 .33.25 4.86 4.86 0 0 0 .4.28l.3.2.34.24.46.32.1.07.39.28a.91.91 0 0 0 .1.05c.1.06.11.08.05.19l-.2.33-.47.76-.02.03c-.07.1-.07.1-.17.05l-.47-.28a.96.96 0 0 0-.08-.04l-.2-.09c-.02 0-.04-.02-.06-.04-.27-.12-.52-.3-.78-.45l-.18-.08-.75-.44-.39-.21-.25-.17-.6-.35-.09-.06-.15-.09-.47-.27-1.17-.72c-.1-.06-.14-.05-.2.04a3.84 3.84 0 0 0-.32.5c-.22.42-.46.83-.7 1.24l-.2.35a.27.27 0 0 0 .1.38l.83.53 1.18.72.88.55 1.12.67c.32.2.63.4.95.58.1.07.22.12.33.18l.17.1c.05.03.06.05.03.1l-.35.57c-.04.07-.06.15-.1.21l-.38.58-.1.16c-.03.05-.07.06-.13.02a3.37 3.37 0 0 1-.44-.29c-.14-.12-.32-.2-.46-.33a5.38 5.38 0 0 0-.7-.47l-.54-.33a.28.28 0 0 0-.07-.04 2 2 0 0 1-.47-.25l-1.31-.78-.6-.35-.24-.16a.08.08 0 0 0-.01-.01 4.09 4.09 0 0 1-.67-.36c-.13-.07-.15-.07-.23.06l-.57.9-.52.85a.17.17 0 0 0 .05.27l.53.38c.14.1.3.2.44.33s.3.22.46.33c.17.12.33.27.5.38a4.96 4.96 0 0 0 .54.4 1.42 1.42 0 0 1 .24.17l.14.12a3.81 3.81 0 0 1 .54.38.74.74 0 0 0 .09.06l.88.62.83.56c.1.07.1.1.04.19-.15.23-.3.46-.43.7s-.3.47-.44.71c-.06.1-.1.1-.2.05l-1.2-.74-.5-.32a.63.63 0 0 1-.12-.09 1.29 1.29 0 0 0-.38-.24 2.34 2.34 0 0 1-.2-.13c-.1-.08-.22-.14-.33-.22l-.21-.16a.66.66 0 0 0-.06-.04l-1.01-.64-.55-.37-.32-.2-.57-.35a.55.55 0 0 0-.11-.05c-.11-.04-.15-.02-.2.07-.09.13-.17.26-.24.4l-.5.87-.24.4-.1.21-.04.08a.5.5 0 0 0-.12.21.12.12 0 0 0 .05.17l.8.52.83.55.91.6 1.5.9c.18.12.38.22.58.33l.72.41.22.11c.08.03.08.07.04.14l-.78 1.27-.76 1.2-.25.42a.1.1 0 0 0-.02.04c0 .1-.1.15-.15.23-.03.05-.08.04-.13 0l-.44-.26-1.1-.68-.57-.34a.57.57 0 0 0-.12-.06.6.6 0 0 1-.24-.15.23.23 0 0 0-.07-.06 4 4 0 0 1-.66-.37l-.77-.45-.47-.28-.6-.34-1.3-.77-.81-.5-.4-.2-.7-.43-.24-.1-.08-.04c-.09-.05-.1-.1-.06-.18l.45-.75.25-.45a5.43 5.43 0 0 1 .27-.47l.24-.39a.72.72 0 0 1 .06-.07c.02-.02.06-.05.06-.08.03-.16.18-.25.24-.39a4.26 4.26 0 0 1 .24-.4l.5-.77a.92.92 0 0 1 .05-.07 1.25 1.25 0 0 0 .15-.21c.1-.22.27-.4.38-.6l.36-.6.75-1.23.56-.9.56-.92.15-.2c.05-.06.1-.13.13-.2l.8-1.28.36-.59c.27-.42.52-.85.8-1.27l.44-.69.56-.93.19-.3a.3.3 0 0 0 .03-.05 2.79 2.79 0 0 1 .3-.47l.31-.46.28-.44.23-.37.26-.5.17-.3.22-.44.61-.99.94-1.46.53-.85.24-.35.28-.46.52-.83.2-.34c.13-.2.25-.4.4-.6.35-.48.63-1.01.96-1.52l.2-.31.15-.18.6-.98.64-1.02c.05-.09.09-.1.18-.04l.99.6c.34.2.68.4 1.02.62.48.28.95.58 1.43.87l.62.36.38.25c.24.14.48.27.71.42s.46.3.69.43a4.88 4.88 0 0 0 .6.34 1.73 1.73 0 0 1 .27.17l.64.4.23.13.14.1.23.14.6.35c.06.03.07.06.03.12l-.54.89-.74 1.18-.34.55c-.07.1-.09.11-.2.05l-1.22-.74-1.8-1.12c-.24-.15-.47-.32-.7-.49l-.12-.07-.65-.42-.75-.47c-.08-.05-.1-.04-.16.04l-.2.3c-.14.2-.27.37-.38.57l-.17.27c-.05.1-.05.1 0 .17a.46.46 0 0 0 .1.09c.22.13.42.27.63.41a6.12 6.12 0 0 1 .54.38c.16.13.34.23.5.35.08.06.14.13.22.18l.38.25.6.44c.11.09.24.16.36.25.3.23.64.41.94.64.23.17.47.32.7.48a2.52 2.52 0 0 1 .21.17.09.09 0 0 1 .02.13c-.1.14-.2.28-.28.42l-.3.5a.16.16 0 0 1-.04.04.36.36 0 0 0-.13.18.2.2 0 0 1-.04.05c-.05.07-.08.08-.15.03-.13-.08-.25-.18-.38-.27l-.04-.03-.81-.52c-.09-.05-.17-.12-.25-.18a1.81 1.81 0 0 0-.13-.1l-.26-.16a1.15 1.15 0 0 1-.12-.1.7.7 0 0 0-.08-.07c-.24-.16-.5-.3-.73-.47a2.99 2.99 0 0 1-.48-.37.5.5 0 0 0-.08-.05l-.6-.43-.85-.6-.35-.26a.2.2 0 0 0-.15-.05.18.18 0 0 1-.08-.02.2.2 0 0 0-.26.08l-.3.48-.35.55a2.27 2.27 0 0 1-.14.19.19.19 0 0 0-.05.17z" fill="#155750"/>
  </g>
</svg>