<svg xmlns="http://www.w3.org/2000/svg" width="23.833" height="23.833" viewBox="0 0 23.833 23.833">
  <path id="Path_30" data-name="Path 30" d="M21.669,0H2.158A2.159,2.159,0,0,0,0,2.159V21.68a2.158,2.158,0,0,0,2.158,2.152H21.675a2.159,2.159,0,0,0,2.158-2.159V2.159A2.168,2.168,0,0,0,21.669,0ZM7.373,20.576a.628.628,0,0,1-.63.63H4.073a.628.628,0,0,1-.63-.63V9.383a.628.628,0,0,1,.63-.63h2.67a.628.628,0,0,1,.63.63ZM5.408,7.7A2.539,2.539,0,1,1,7.946,5.16,2.537,2.537,0,0,1,5.408,7.7ZM21.326,20.632a.572.572,0,0,1-.574.574H17.889a.572.572,0,0,1-.574-.574V15.379c0-.786.231-3.431-2.046-3.431-1.765,0-2.127,1.816-2.2,2.627v6.058a.572.572,0,0,1-.574.574H9.73a.572.572,0,0,1-.574-.574V9.333a.572.572,0,0,1,.574-.574H12.5a.572.572,0,0,1,.574.574v.98a3.927,3.927,0,0,1,3.7-1.741c4.591,0,4.56,4.286,4.56,6.644l-.006,5.415Z" transform="translate(0)" fill="#f8f8f7"/>
</svg>
