<svg xmlns="http://www.w3.org/2000/svg" width="535.031" height="100"><path d="M99.751 5.124V31.46a16.127 16.127 0 0 1 12.48-5.164q7.832 0 12.136 5.078t4.3 13.771v25.391h-10.411V45.748a10.087 10.087 0 0 0-2.367-7.015 8.105 8.105 0 0 0-6.326-2.625q-5.68 0-9.812 6.025v28.4H89.423V5.124zM157.412 26.296q9.553 0 14.718 6.284t5.164 15.836v3.613h-30.641a11.063 11.063 0 0 0 3.4 7.832q3.054 2.755 8.477 2.754 7.315 0 11.018-4.906l6.885 5.423q-6.629 8.262-18.074 8.262-9.985 0-16.1-6.326t-6.106-16.139q0-9.9 5.938-16.268a20.007 20.007 0 0 1 15.321-6.365zm-.173 8.263a10.33 10.33 0 0 0-7.444 2.754 10.516 10.516 0 0 0-3.142 7.316h20.4a10.9 10.9 0 0 0-2.754-7.316 9.207 9.207 0 0 0-7.06-2.754zM202.936 26.296q8.605 0 13 5.939l.516-5.078h9.295v43.379h-9.295l-.516-5.079q-4.391 5.94-13 5.939a17.529 17.529 0 0 1-14.072-6.369q-5.381-6.367-5.379-16.18 0-9.9 5.379-16.224a17.581 17.581 0 0 1 14.072-6.327zm2.238 9.124a10.062 10.062 0 0 0-8.133 3.658q-3.057 3.659-3.056 9.769t3.056 9.768a10.057 10.057 0 0 0 8.133 3.658q6.2 0 10.242-6.455V41.875q-4.047-6.456-10.242-6.455zM257.023 26.296v10.333h-.946q-6.629 0-11.275 6.541v27.37H234.39V27.157h9.295l.6 5.767a14.453 14.453 0 0 1 5.078-4.734 15.031 15.031 0 0 1 7.66-1.894zM282.074 12.612v14.545h13.083v8.779h-13.083v19.279a6.744 6.744 0 0 0 1.807 4.992 6.4 6.4 0 0 0 4.735 1.808 13.487 13.487 0 0 0 6.109-1.463l2.754 8.348a17.449 17.449 0 0 1-9.639 2.5q-7.573 0-11.877-4.217t-4.3-11.964V35.936h-8.18v-8.779h8.176V12.612zM338.532 27.196h-9.719v16.757h-16.757v9.719h16.757v16.864h9.719V53.671h16.864v-9.719h-16.864zM395.681 26.296a17.964 17.964 0 0 1 14.2 6.327q5.508 6.325 5.509 16.224 0 9.811-5.509 16.18a17.91 17.91 0 0 1-14.2 6.369q-8.436 0-12.824-5.164v24.1h-10.414V27.157h9.38l.431 5.078q4.39-5.939 13.427-5.939zm-2.324 9.124q-6.629 0-10.5 6.455v13.943q3.873 6.456 10.5 6.455a10.531 10.531 0 0 0 8.348-3.658q3.183-3.657 3.185-9.768t-3.185-9.769a10.537 10.537 0 0 0-8.348-3.658zM441.423 26.296q8.6 0 13 5.939l.516-5.078h9.295v43.379h-9.295l-.516-5.079q-4.391 5.94-13 5.939a17.529 17.529 0 0 1-14.073-6.369q-5.379-6.367-5.379-16.18 0-9.9 5.379-16.224a17.581 17.581 0 0 1 14.073-6.327zm2.237 9.124a10.065 10.065 0 0 0-8.134 3.658q-3.055 3.659-3.054 9.769t3.054 9.768a10.059 10.059 0 0 0 8.134 3.658q6.2 0 10.242-6.455V41.875q-4.045-6.456-10.241-6.455zM535.032 27.157l-19.968 44.239h-.341l-11.964-23.754-12.05 23.754h-.343l-19.968-44.239h11.1l9.812 23.927 11.275-23.927h.344l11.19 23.927 9.9-23.927z" fill="#155750"/><path d="M40.671 24.635c1.826 0 3.312-1.946 3.312-4.338s-1.486-4.343-3.312-4.343-3.316 1.947-3.316 4.343 1.486 4.338 3.316 4.338zM31.851 24.635c1.826 0 3.313-1.946 3.313-4.338s-1.487-4.343-3.313-4.343-3.316 1.947-3.316 4.343 1.488 4.338 3.316 4.338zM49.407 27.938c1.737 0 3.149-1.849 3.149-4.12s-1.412-4.12-3.149-4.12-3.146 1.848-3.146 4.12 1.412 4.12 3.146 4.12zM23.195 27.938c1.738 0 3.149-1.849 3.149-4.12s-1.411-4.12-3.149-4.12-3.146 1.848-3.146 4.12 1.412 4.12 3.146 4.12zM48.87 33.057l-.1-.05c-4.139-1.524-7.552-.611-10.979 2.043-.048.037-.108.1-.159.139-.031-.044-.084-.134-.111-.172-2.075-2.919-4.18-4.965-7.821-4.965a11.187 11.187 0 0 0-10.79 8.846c-.9 3.937 1.3 9.658 4.775 13.019a39.052 39.052 0 0 0 7.1 5.253 19.88 19.88 0 0 0 8.113 2.646c1.15.129 2.611-.221 2.776-1.684a2.713 2.713 0 0 0-1.869-2.757 18.7 18.7 0 0 1-7.16-2.415c-1.542-.876-4.061-2.726-5.316-3.64-2.423-1.765-3.78-5.575-3.952-7.532-.266-3.009.388-3.665 1.756-5.469 1.031-1.361 2.376-1.541 3.851-1.783a2.854 2.854 0 0 1 1.066.026c2.575.564 3.675 2.4 4.83 4.691.179.357.29.625.478.947a2.112 2.112 0 0 0 1.782 1.077.486.486 0 0 0 .066 0 2.445 2.445 0 0 0 1.977-1.076c1.714-2.576 4.089-4.456 7.144-3.287a3.549 3.549 0 0 1 2.4 3.467 5.539 5.539 0 0 1-2.956 4.7 1.952 1.952 0 0 0-1.128 1.576 2.277 2.277 0 0 0 1.128 2.156 1.945 1.945 0 0 0 2.229.091 10.176 10.176 0 0 0 5.1-7.779 7.979 7.979 0 0 0-2.668-7.056 8.259 8.259 0 0 0-1.562-1.012z" fill="none"/><path d="M31.851 24.635c1.826 0 3.313-1.946 3.313-4.338s-1.487-4.343-3.313-4.343-3.316 1.947-3.316 4.343 1.488 4.338 3.316 4.338zM49.407 27.938c1.737 0 3.149-1.849 3.149-4.12s-1.412-4.12-3.149-4.12-3.146 1.848-3.146 4.12 1.412 4.12 3.146 4.12zM40.671 24.635c1.826 0 3.312-1.946 3.312-4.338s-1.486-4.343-3.312-4.343-3.316 1.947-3.316 4.343 1.486 4.338 3.316 4.338zM23.195 27.938c1.738 0 3.149-1.849 3.149-4.12s-1.411-4.12-3.149-4.12-3.146 1.848-3.146 4.12 1.412 4.12 3.146 4.12zM48.87 33.057l-.1-.05c-4.139-1.524-7.552-.611-10.979 2.043-.048.037-.108.1-.159.139-.031-.044-.084-.134-.111-.172-2.075-2.919-4.18-4.965-7.821-4.965a11.187 11.187 0 0 0-10.79 8.846c-.9 3.937 1.3 9.658 4.775 13.019a39.052 39.052 0 0 0 7.1 5.253 19.88 19.88 0 0 0 8.113 2.646c1.15.129 2.611-.221 2.776-1.684a2.713 2.713 0 0 0-1.869-2.757 18.7 18.7 0 0 1-7.16-2.415c-1.542-.876-4.061-2.726-5.316-3.64-2.423-1.765-3.78-5.575-3.952-7.532-.266-3.009.388-3.665 1.756-5.469 1.031-1.361 2.376-1.541 3.851-1.783a2.854 2.854 0 0 1 1.066.026c2.575.564 3.675 2.4 4.83 4.691.179.357.29.625.478.947a2.112 2.112 0 0 0 1.782 1.077.486.486 0 0 0 .066 0 2.445 2.445 0 0 0 1.977-1.076c1.714-2.576 4.089-4.456 7.144-3.287a3.549 3.549 0 0 1 2.4 3.467 5.539 5.539 0 0 1-2.956 4.7 1.952 1.952 0 0 0-1.128 1.576 2.277 2.277 0 0 0 1.128 2.156 1.945 1.945 0 0 0 2.229.091 10.176 10.176 0 0 0 5.1-7.779 7.979 7.979 0 0 0-2.668-7.056 8.259 8.259 0 0 0-1.562-1.012z" fill="none"/><path d="M69.835 23.237c-.6-4.084-4.779-14.673-16.972-21.028-13.248-6.9-69.425-.02-48.074 55.62 3.35 8.732 14.4 18.367 31.118 17.835.108 0 .2-.032.309-.044 12.463-1.39 23.555-7.182 26.3-15.261a40.364 40.364 0 0 1 6.837-12.9 12.341 12.341 0 0 0 1.739-3.266c1.753-5.227.224-10.879-1.257-20.956zm-20.428-3.539c1.737 0 3.149 1.848 3.149 4.12s-1.412 4.12-3.149 4.12-3.146-1.849-3.146-4.12 1.412-4.12 3.146-4.12zm-8.736-3.744c1.826 0 3.312 1.947 3.312 4.343s-1.486 4.338-3.312 4.338-3.316-1.946-3.316-4.338 1.486-4.343 3.316-4.343zm-8.82 0c1.826 0 3.313 1.947 3.313 4.343s-1.487 4.338-3.313 4.338-3.316-1.946-3.316-4.338 1.488-4.343 3.316-4.343zm-8.656 3.744c1.738 0 3.149 1.848 3.149 4.12s-1.411 4.12-3.149 4.12-3.146-1.849-3.146-4.12 1.412-4.12 3.146-4.12zm29.907 21.43a10.176 10.176 0 0 1-5.1 7.779 1.945 1.945 0 0 1-2.229-.091 2.277 2.277 0 0 1-1.128-2.156 1.952 1.952 0 0 1 1.128-1.576 5.539 5.539 0 0 0 2.956-4.7 3.549 3.549 0 0 0-2.4-3.467c-3.055-1.169-5.43.711-7.144 3.287a2.445 2.445 0 0 1-1.977 1.076.486.486 0 0 1-.066 0 2.112 2.112 0 0 1-1.782-1.077c-.188-.322-.3-.59-.478-.947-1.155-2.3-2.255-4.127-4.83-4.691a2.854 2.854 0 0 0-1.066-.026c-1.475.242-2.82.422-3.851 1.783-1.368 1.8-2.022 2.46-1.756 5.469.172 1.957 1.529 5.767 3.952 7.532 1.255.914 3.774 2.764 5.316 3.64a18.7 18.7 0 0 0 7.16 2.415 2.713 2.713 0 0 1 1.869 2.757c-.165 1.463-1.626 1.813-2.776 1.684a19.88 19.88 0 0 1-8.113-2.646 39.052 39.052 0 0 1-7.1-5.253c-3.48-3.361-5.671-9.082-4.775-13.019a11.187 11.187 0 0 1 10.79-8.846c3.641 0 5.746 2.046 7.821 4.965.027.038.08.128.111.172.051-.039.111-.1.159-.139 3.427-2.654 6.84-3.567 10.979-2.043l.1.05a8.259 8.259 0 0 1 1.564 1.015 7.979 7.979 0 0 1 2.666 7.054z" fill="#155750"/></svg>