<svg xmlns="http://www.w3.org/2000/svg" width="32" height="32" viewBox="0 0 32 32"><g transform="translate(-152 -151)"><rect width="32" height="31.999" transform="translate(152 151)" fill="none"/><g transform="translate(152 151.001)"><path d="M170.4,38.323c-.166.007-.332.024-.5.018a.721.721,0,0,0-.246.046.489.489,0,0,1-.3,0,.765.765,0,0,0-.209-.033,5.659,5.659,0,0,0-.8.054c-.284.031-.571.034-.856.055-.3.022-.6.057-.908.075-.282.017-.564.023-.846.027a2.17,2.17,0,0,0-.341.023,2.668,2.668,0,0,1-.33.02l-.267.011-.235.01-.481.017-.214.005c-.286.007-.574-.007-.856.026a4.968,4.968,0,0,1-.822-.012c-.1,0-.207,0-.311,0-.236,0-.472-.015-.707-.008-.19.006-.378-.015-.566-.013a3.468,3.468,0,0,1-.712-.056,1.573,1.573,0,0,0-.289,0c-.332,0-.665,0-1-.008a.359.359,0,0,1-.155-.036c-.1-.054-.2-.118-.3-.179-.049-.03-.093-.067-.143-.095a.132.132,0,0,1-.073-.152c.022-.127.046-.253.069-.379.047-.256.1-.513.142-.769q.075-.422.146-.845c.041-.25.079-.5.118-.751,0-.021,0-.043.007-.064.042-.257.087-.514.127-.771.034-.219.062-.438.092-.658.012-.088.023-.177.034-.266q.053-.43.106-.861c.033-.262.067-.524.1-.787.011-.092.014-.185.024-.278.028-.256.06-.511.085-.767s.041-.491.062-.737c.007-.082.015-.164.023-.245s.013-.135.019-.2c.01-.121.02-.242.03-.363,0-.028.01-.057.011-.085q.018-.348.035-.7c0-.014,0-.029,0-.043q.027-.358.055-.715c0-.014,0-.028,0-.043.009-.267.018-.535.028-.8.008-.214.018-.428.028-.642,0-.029.007-.057.007-.085,0-.271.008-.542.013-.813,0-.253.012-.506.018-.759,0-.007,0-.014,0-.021q0-.364-.006-.728c0-.014,0-.028,0-.043q0-.369,0-.738c0-.018,0-.036,0-.054q-.012-.369-.024-.738c0-.025-.005-.05-.006-.075-.008-.253-.014-.507-.022-.76,0-.068-.01-.135-.015-.2,0-.043-.011-.085-.014-.128-.009-.178-.015-.357-.026-.535-.027-.431-.053-.862-.087-1.293-.019-.238-.054-.475-.079-.713-.027-.259-.051-.518-.077-.777-.005-.05-.014-.1-.02-.149q-.023-.181-.045-.361c0-.025,0-.05-.006-.075-.041-.261-.084-.522-.125-.783-.037-.236-.071-.473-.106-.71,0-.021-.005-.043-.009-.064-.05-.256-.1-.512-.15-.767s-.1-.512-.146-.768c-.012-.063-.029-.125-.044-.188l-.063-.26c-.024-.1-.048-.2-.073-.3-.005-.021-.013-.041-.018-.062-.057-.24-.108-.481-.171-.719s-.143-.5-.214-.752c-.012-.041-.023-.083-.035-.124q-.061-.211-.123-.421c-.021-.072-.043-.143-.066-.215s-.05-.164-.076-.245q-.088-.27-.179-.539c-.017-.051-.04-.1-.054-.151a2.271,2.271,0,0,0-.151-.412c-.092-.194-.048-.286.157-.341a.742.742,0,0,0,.277-.133.51.51,0,0,1,.176-.075.816.816,0,0,0,.256-.106.533.533,0,0,1,.134-.067,1.779,1.779,0,0,0,.435-.2,1.028,1.028,0,0,1,.19-.068c.068-.028.134-.062.2-.094a1.026,1.026,0,0,1,.142-.07c.082-.025.167-.037.25-.058a.849.849,0,0,0,.195-.057,1.832,1.832,0,0,1,.448-.14,4.961,4.961,0,0,0,.6-.157,2.787,2.787,0,0,1,.417-.1c.136-.028.274-.051.411-.077a.188.188,0,0,0,.062-.017,1.238,1.238,0,0,1,.514-.138c.214-.025.419-.091.628-.135s.434-.084.651-.127a.713.713,0,0,0,.28-.1.378.378,0,0,1,.265-.056c.024,0,.055.013.073,0a.224.224,0,0,1,.233.026.633.633,0,0,0,.353.063,2.593,2.593,0,0,1,.577.017.184.184,0,0,0,.053,0,1.576,1.576,0,0,1,.532.042l.032,0c.288.021.577.046.865.059a4.14,4.14,0,0,0,.471-.013.624.624,0,0,1,.366.1c.055.032.114.057.171.088s.129.074.2.108a.472.472,0,0,0,.117.047.5.5,0,0,1,.232.1.088.088,0,0,0,.017.013c.183.094.365.189.548.282.032.016.068.022.1.038.159.082.313.173.476.245a1.528,1.528,0,0,1,.382.207c.023.019.061.019.09.032.048.022.1.045.142.07.066.035.13.073.2.108s.152.078.228.118c.009,0,.017.015.027.017.191.038.325.188.5.254.139.052.267.136.4.2.093.046.189.085.283.127.007,0,.014,0,.02.008l.475.265c.037.021.073.044.111.063.115.057.231.113.346.17.057.029.07.059.05.123-.049.157-.1.313-.151.469s-.089.287-.131.43-.075.268-.114.4q-.1.334-.2.667c-.008.027-.02.054-.027.081-.061.257-.12.515-.181.772-.057.24-.117.478-.175.718,0,.014-.009.027-.012.041-.05.256-.1.511-.15.767q-.068.352-.132.705c-.02.109-.038.218-.055.327-.031.2-.061.4-.091.593-.028.18-.056.36-.082.54-.038.261-.08.522-.112.785-.03.244-.047.49-.073.735-.028.263-.061.525-.092.787,0,.014-.005.028-.006.042-.015.246-.029.492-.044.738,0,.057-.009.114-.014.171-.008.1-.018.206-.025.309-.017.271-.033.541-.049.812,0,.021,0,.043-.005.064-.007.25-.012.5-.021.75s-.027.506-.033.759,0,.492,0,.738c0,.086,0,.171,0,.257,0,.021,0,.043,0,.064,0,.26.01.521.015.781,0,.043,0,.086,0,.128q0,.176,0,.353c0,.021.005.043.006.064,0,.232,0,.464,0,.7,0,.1.008.193.012.289.009.257.018.514.027.771,0,.082.009.164.015.246,0,.028.008.057.009.085.011.21.019.421.031.631.017.3.038.6.056.9,0,.075.005.15.01.225s.014.156.021.235c0,.028.011.056.013.085.019.242.036.484.056.726s.042.484.063.726c.009.107.018.214.03.32s.026.184.036.276c.026.249.049.5.076.746.025.231.054.461.083.691.039.308.078.617.12.924.03.223.065.445.1.668.005.035.016.07.021.105.038.258.074.516.113.774.031.2.06.41.1.614.084.475.172.949.258,1.423q0,.026.008.053c.019.138.006.168-.119.227-.09.043-.183.08-.275.12a.694.694,0,0,0-.1.046,1.638,1.638,0,0,1-.375.181.233.233,0,0,0-.107.068A.365.365,0,0,1,170.4,38.323Z" transform="translate(-148.665 -7.487)" fill="#155750"/><path d="M7.4,91.611,7.177,91.4c-.159-.147-.32-.294-.478-.443-.114-.108-.222-.222-.337-.329-.184-.169-.373-.333-.558-.5s-.338-.317-.51-.473c-.087-.079-.181-.149-.27-.226-.156-.136-.311-.274-.466-.411-.019-.017-.037-.033-.057-.049-.086-.069-.178-.132-.258-.207-.158-.149-.328-.285-.486-.436-.249-.239-.523-.453-.783-.681-.118-.1-.229-.215-.343-.324-.088-.083-.176-.167-.263-.251-.161-.157-.319-.317-.484-.47a1,1,0,0,1-.211-.225,1.485,1.485,0,0,1-.1-.191c-.058-.149-.113-.3-.165-.452-.087-.253-.17-.508-.255-.762-.016-.047-.032-.095-.05-.142C.986,84.5.856,84.179.74,83.849c-.069-.2-.115-.4-.173-.6-.043-.147-.093-.293-.133-.441-.049-.183-.082-.37-.137-.551a5.556,5.556,0,0,1-.156-.94c-.049-.393-.08-.789-.118-1.184a.737.737,0,0,1,0-.118c.036-.554-.011-1.107,0-1.661,0-.357.01-.715.008-1.072,0-.171-.02-.342-.025-.513,0-.107.005-.214.009-.321.005-.153.012-.307.017-.46,0-.021,0-.043,0-.064.01-.217.012-.436.033-.652.024-.256.063-.51.095-.765a1.2,1.2,0,0,0,.013-.16,4.5,4.5,0,0,1,.149-1.058,8.51,8.51,0,0,0,.24-1.12c.005-.057,0-.114.01-.171A.626.626,0,0,1,.6,71.81a1.465,1.465,0,0,0,.09-.5C.7,71.086.7,70.864.7,70.643c0-.373,0-.3.211-.554.1-.131.22-.253.336-.375.1-.1.2-.193.3-.292s.176-.187.265-.28c.132-.136.267-.269.4-.406a6.3,6.3,0,0,1,.451-.453c.14-.121.283-.24.422-.363.07-.061.134-.128.2-.192.107-.1.211-.2.322-.3.081-.069.175-.123.26-.187.191-.143.375-.3.573-.431.16-.108.3-.242.446-.361s.324-.257.491-.379a1.353,1.353,0,0,1,.189-.1.467.467,0,0,0,.1-.055,3.068,3.068,0,0,1,.546-.316c.077-.045.156-.084.233-.129.048-.028.068-.027.095.021a.569.569,0,0,1,.036.089c.076.216.152.431.227.647.022.064.039.13.06.195.032.1.066.2.1.295.056.177.114.353.165.532.064.227.123.455.183.683s.127.476.188.715c.022.086.029.176.053.262.09.331.154.668.218,1,.049.26.109.517.157.777.04.221.068.445.1.667.026.166.057.331.083.5.036.237.071.473.1.711.034.258.063.517.092.776.027.234.053.468.077.7s.043.477.063.715c.023.277.045.555.067.833,0,.028.006.057.007.085.008.236.015.471.023.707,0,.053.011.107.015.16.005.089.009.178.012.267s0,.157.008.235c0,.032.007.064.008.1.005.25.009.5.014.75,0,.053.006.107.007.161,0,.1,0,.192,0,.288,0,0,0,.007,0,.011q0,.385.01.77c0,.007,0,.014,0,.021q0,.353-.01.706c0,.029-.007.057-.007.085,0,.228,0,.457-.007.685-.006.253-.016.507-.025.76,0,.025-.006.05-.007.075-.008.25-.013.5-.025.749s-.031.506-.046.759c0,.046-.007.093-.01.139q-.032.454-.064.908c-.017.235-.032.47-.05.705-.016.206-.032.413-.053.619q-.073.725-.151,1.45c-.024.22-.057.439-.085.659-.033.262-.064.525-.1.787s-.075.516-.112.774l-.023.159c-.018.124-.036.247-.054.371q-.054.36-.108.72c0,.018,0,.036-.007.053q-.1.586-.2,1.172a1.046,1.046,0,0,1-.035.118Z" transform="translate(0 -62.365)" fill="#155750"/><path d="M446.912,96.772c-.008-.082-.015-.163-.023-.245,0-.028-.008-.057-.01-.085q-.014-.364-.027-.728c0-.007,0-.014,0-.021-.014-.253-.029-.506-.041-.759-.008-.175-.015-.35-.018-.524,0-.25,0-.5-.006-.749,0-.05-.006-.1-.007-.15,0-.1,0-.192,0-.289,0-.018,0-.036,0-.053q0-.375-.011-.749c0-.046,0-.093,0-.139,0-.132,0-.264,0-.4,0-.057,0-.114.009-.171s.011-.085.011-.128c0-.229,0-.457.009-.686.009-.257.026-.513.039-.77,0-.018,0-.036,0-.053.008-.232.014-.464.025-.7.009-.178.023-.356.037-.534q.027-.347.058-.694.035-.4.073-.8c.006-.068.017-.135.024-.2q.016-.138.03-.277c0-.025,0-.05,0-.075.047-.354.092-.708.143-1.062q.067-.472.144-.942c.034-.2.076-.407.115-.611.044-.228.087-.456.133-.683q.084-.409.175-.817c.056-.251.111-.5.174-.751.059-.232.127-.461.191-.692.01-.034.024-.068.032-.1a8.568,8.568,0,0,1,.28-.933c.027-.077.046-.158.069-.237.04-.135.07-.143.185-.071a2.265,2.265,0,0,0,.476.241.234.234,0,0,1,.069.029,2.644,2.644,0,0,0,.367.217c.176.094.354.184.532.275.022.011.048.017.069.029l.717.426a.117.117,0,0,0,.027.017c.141.034.2.14.255.263a3.043,3.043,0,0,1,.2.45.106.106,0,0,0,.013.029,1.406,1.406,0,0,1,.2.469.134.134,0,0,0,.029.057.938.938,0,0,1,.163.358,1.053,1.053,0,0,0,.087.218,2.864,2.864,0,0,1,.181.48,1.64,1.64,0,0,0,.13.292,1.617,1.617,0,0,1,.1.27c.035.093.072.186.106.28s.077.2.1.3a1.679,1.679,0,0,0,.149.377,1.491,1.491,0,0,1,.121.33,2.02,2.02,0,0,0,.137.382c.052.1.081.221.123.331.034.09.076.177.11.267.049.13.093.263.14.394a.764.764,0,0,0,.052.129,1.6,1.6,0,0,1,.173.471,1.774,1.774,0,0,0,.166.451.808.808,0,0,1,.089.229,2.985,2.985,0,0,0,.177.516,2.4,2.4,0,0,1,.139.461.482.482,0,0,0,.055.161,1.112,1.112,0,0,1,.137.392,3.4,3.4,0,0,0,.179.583c.067.2.118.4.177.6a.619.619,0,0,0,.049.152,1.955,1.955,0,0,1,.18.525.808.808,0,0,1-.04.485,1.536,1.536,0,0,0-.074.377.9.9,0,0,1-.072.278,2.166,2.166,0,0,0-.078.288c-.017.065-.033.131-.051.2q-.041.149-.085.3c-.03.1-.063.2-.092.307a1.188,1.188,0,0,0-.038.177.581.581,0,0,1-.1.27.421.421,0,0,0-.07.222.8.8,0,0,1-.1.356.989.989,0,0,0-.069.213.905.905,0,0,1-.049.163,1.034,1.034,0,0,0-.1.314,1.067,1.067,0,0,1-.045.143c-.036.112-.072.224-.106.336-.009.031-.01.064-.023.094a3.8,3.8,0,0,0-.181.48c-.021.079-.052.155-.08.232-.035.093-.073.185-.106.279a1.158,1.158,0,0,0-.06.2.666.666,0,0,1-.1.268.924.924,0,0,0-.077.186.982.982,0,0,1-.055.161,1.1,1.1,0,0,0-.113.31,1.606,1.606,0,0,1-.082.208c-.025.063-.05.125-.071.189a1.577,1.577,0,0,1-.045.154,1.474,1.474,0,0,0-.121.331.2.2,0,0,1-.052.092.374.374,0,0,0-.1.253.382.382,0,0,1-.083.216.535.535,0,0,0-.078.174,1.2,1.2,0,0,1-.1.293.62.62,0,0,0-.052.185.413.413,0,0,1-.119.246.146.146,0,0,0-.031.043,3.859,3.859,0,0,1-.376.533c-.076.1-.16.2-.235.3-.089.124-.2.233-.3.35s-.2.242-.3.362-.186.215-.279.323c-.07.081-.136.165-.208.244-.221.242-.421.5-.663.727-.073.067-.13.151-.2.225-.1.11-.207.215-.308.326-.067.074-.127.154-.193.229-.1.109-.2.216-.3.324-.031.034-.058.072-.089.107s-.085.1-.132.14c-.1.095-.206.187-.31.279a1.576,1.576,0,0,1-.158.127c-.053.036-.082.021-.1-.043a.139.139,0,0,1,0-.021c-.03-.194-.059-.388-.09-.582-.011-.071-.027-.14-.039-.211q-.067-.418-.132-.836-.056-.36-.11-.72c-.028-.191-.055-.382-.08-.573-.065-.507-.134-1.013-.193-1.52s-.107-.994-.155-1.492c-.025-.252-.038-.506-.059-.758-.019-.224-.045-.448-.063-.672-.02-.253-.034-.506-.05-.759Z" transform="translate(-422.942 -75.992)" fill="#155750"/></g></g></svg>