<svg xmlns="http://www.w3.org/2000/svg" width="64" height="64">
  <g data-name="Group 2188">
    <path data-name="Rectangle 821" fill="none" d="M0 0h64v64H0z"/>
    <g data-name="Group 2099" fill="#fff">
      <path data-name="Path 480" d="M43.48 61.67c-.33.02-.67.05-1 .04a1.44 1.44 0 0 0-.5.1.98.98 0 0 1-.6-.01 1.53 1.53 0 0 0-.42-.07 11.32 11.32 0 0 0-1.6.1c-.57.07-1.14.07-1.71.12-.6.04-1.21.11-1.82.15-.56.03-1.13.04-1.7.05a4.34 4.34 0 0 0-.67.05 5.34 5.34 0 0 1-.66.04l-.54.02-.47.02-.96.03-.43.01c-.57.02-1.14-.01-1.71.06a9.93 9.93 0 0 1-1.64-.03h-.62c-.48 0-.95-.03-1.42-.01-.38 0-.76-.03-1.13-.03a6.94 6.94 0 0 1-1.42-.11 3.15 3.15 0 0 0-.58 0c-.67 0-1.33 0-2-.02a.72.72 0 0 1-.3-.07c-.21-.1-.41-.23-.61-.36l-.29-.19a.27.27 0 0 1-.14-.3l.13-.76.29-1.54.29-1.68.24-1.5v-.13c.1-.52.18-1.03.26-1.55l.19-1.31.07-.53.2-1.72.2-1.58c.03-.18.04-.37.06-.55l.16-1.54.13-1.47.04-.49.04-.4.06-.73c0-.06.02-.11.03-.17l.06-1.4v-.08l.11-1.43.01-.08.06-1.6.05-1.29.02-.17.02-1.63.04-1.51v-.05l-.01-1.45-.01-.09v-1.47-.11l-.05-1.48-.01-.15-.04-1.52c0-.13-.02-.27-.04-.4l-.02-.26-.06-1.07c-.05-.86-.1-1.72-.17-2.58-.04-.48-.1-.96-.16-1.43l-.15-1.55-.04-.3-.1-.73v-.15l-.25-1.56-.21-1.42-.02-.13-.3-1.53-.3-1.54-.08-.38-.13-.52-.15-.6-.03-.12-.34-1.44c-.13-.5-.29-1-.43-1.5l-.07-.24-.25-.85-.13-.43-.15-.49-.36-1.07c-.03-.1-.08-.2-.1-.3a4.54 4.54 0 0 0-.3-.83c-.19-.38-.1-.57.3-.68a1.48 1.48 0 0 0 .56-.26 1.02 1.02 0 0 1 .36-.15 1.63 1.63 0 0 0 .5-.21 1.07 1.07 0 0 1 .28-.14 3.56 3.56 0 0 0 .87-.4 2.06 2.06 0 0 1 .38-.14l.4-.19a2.05 2.05 0 0 1 .28-.14c.16-.05.33-.07.5-.11a1.7 1.7 0 0 0 .39-.12 3.66 3.66 0 0 1 .9-.28 9.92 9.92 0 0 0 1.2-.31 5.57 5.57 0 0 1 .83-.2l.82-.15a.38.38 0 0 0 .13-.03 2.48 2.48 0 0 1 1.02-.28c.43-.05.84-.18 1.26-.27l1.3-.25a1.43 1.43 0 0 0 .56-.2.76.76 0 0 1 .53-.11c.05 0 .11.02.15 0a.45.45 0 0 1 .46.05 1.27 1.27 0 0 0 .7.13 5.19 5.19 0 0 1 1.16.03.37.37 0 0 0 .11 0 3.15 3.15 0 0 1 1.06.09.54.54 0 0 0 .07.01c.57.04 1.15.1 1.73.12a8.28 8.28 0 0 0 .94-.03 1.25 1.25 0 0 1 .73.2c.11.07.23.12.34.18.14.07.26.15.4.21a.94.94 0 0 0 .23.1 1 1 0 0 1 .46.2.18.18 0 0 0 .04.02c.36.2.73.38 1.1.57l.2.07c.31.17.62.35.95.5a3.06 3.06 0 0 1 .76.4c.05.05.12.05.18.07l.29.14.39.22.46.23c.01.01.03.04.05.04.38.07.65.37 1 .5.29.1.54.28.8.4l.57.26c.02 0 .03 0 .04.02l.95.53.22.12.7.34c.11.06.14.12.1.25l-.3.94-.27.86-.23.8-.4 1.33c0 .06-.03.11-.04.17l-.37 1.54-.35 1.44-.02.08-.3 1.53-.27 1.41-.1.66-.19 1.18-.16 1.08-.23 1.57c-.06.5-.1.98-.14 1.47l-.19 1.58v.08l-.1 1.48-.03.34-.04.62-.1 1.62-.01.13-.05 1.5c-.02.5-.05 1.01-.06 1.52l-.01 1.47v.52l-.01.13.03 1.56v.96l.02.13v1.39c0 .2.03.38.03.58l.06 1.54.03.49.02.17.06 1.26.11 1.8.02.45.04.47.03.17.11 1.45.13 1.46.06.64.07.55.15 1.49a81.45 81.45 0 0 0 .41 3.23l.2 1.34.04.2.23 1.55c.06.41.12.82.2 1.23l.5 2.85.02.1c.04.28.02.34-.23.46l-.55.24a1.4 1.4 0 0 0-.2.09 3.27 3.27 0 0 1-.75.36.47.47 0 0 0-.21.14.73.73 0 0 1-.73.24z"/>
      <path data-name="Path 481" d="M14.8 58.5l-.45-.42-.95-.89-.67-.65-1.12-1-1.02-.95c-.17-.16-.36-.3-.54-.45l-.93-.82-.11-.1c-.18-.14-.36-.27-.52-.42-.32-.3-.66-.57-.97-.87-.5-.48-1.05-.9-1.57-1.36-.23-.2-.45-.43-.68-.65l-.53-.5-.97-.94a2 2 0 0 1-.42-.45 2.97 2.97 0 0 1-.2-.38l-.32-.9-.51-1.52-.1-.29-.74-1.96c-.14-.4-.23-.8-.35-1.2l-.26-.88c-.1-.36-.17-.74-.28-1.1a11.11 11.11 0 0 1-.3-1.88c-.1-.79-.17-1.58-.24-2.37a1.47 1.47 0 0 1-.01-.23C.11 34.2.02 33.1.04 32v-2.15c0-.34-.03-.68-.04-1.03l.02-.64.03-.92v-.13c.02-.43.03-.87.07-1.3.04-.51.12-1.02.19-1.53a2.39 2.39 0 0 0 .02-.32 9 9 0 0 1 .3-2.12 17.02 17.02 0 0 0 .48-2.24l.02-.34a1.25 1.25 0 0 1 .06-.38 2.93 2.93 0 0 0 .18-1c.03-.45.04-.89.03-1.33 0-.75.01-.6.43-1.11.2-.26.44-.5.67-.75.19-.2.4-.39.6-.58s.34-.38.52-.56l.8-.81a12.6 12.6 0 0 1 .9-.9l.84-.73.4-.39.65-.6c.16-.14.34-.24.52-.37.38-.29.75-.6 1.14-.86.32-.22.6-.49.9-.73l.97-.75a2.7 2.7 0 0 1 .38-.2.93.93 0 0 0 .2-.12 6.14 6.14 0 0 1 1.1-.63l.47-.26c.1-.05.13-.05.19.05a1.14 1.14 0 0 1 .07.18l.45 1.3c.05.12.08.25.12.38l.2.59.33 1.06.36 1.37.38 1.43.1.52c.18.67.31 1.34.44 2.01.1.52.22 1.04.31 1.56.08.44.14.89.2 1.33l.17 1a45.79 45.79 0 0 1 .39 2.97l.15 1.4.13 1.44.13 1.66.01.17.05 1.41c0 .11.02.22.03.32l.02.54.02.47.01.2.03 1.5.02.31v.6l.03 1.54v.04l-.03 1.41-.01.17-.01 1.37-.05 1.52-.02.15c-.01.5-.02 1-.05 1.5l-.1 1.52-.01.28-.13 1.82-.1 1.4-.1 1.24-.3 2.9-.18 1.32c-.06.53-.12 1.05-.2 1.58l-.22 1.54-.05.32-.1.74-.22 1.44-.01.11-.41 2.34a2.1 2.1 0 0 1-.07.24z"/>
      <path data-name="Path 482" d="M47.94 41.56l-.05-.49-.01-.17-.06-1.45v-.05l-.08-1.51-.04-1.05v-1.5l-.02-.3v-.58-.1l-.02-1.5v-.28-.8l.02-.34.03-.25.01-1.38.08-1.54v-.1l.06-1.4.07-1.06.12-1.39.14-1.6.05-.4.06-.55.01-.15.29-2.13.28-1.88.23-1.22.27-1.37.35-1.63c.11-.5.22-1 .35-1.5l.38-1.39.07-.2a17.15 17.15 0 0 1 .56-1.87l.13-.47c.08-.27.14-.28.37-.14a4.53 4.53 0 0 0 .96.48.47.47 0 0 1 .13.06 5.29 5.29 0 0 0 .74.43l1.06.55c.04.03.1.04.14.06l1.43.85a.23.23 0 0 0 .06.04c.28.07.4.28.5.52a6.07 6.07 0 0 1 .4.9.22.22 0 0 0 .03.06 2.81 2.81 0 0 1 .4.94.27.27 0 0 0 .07.11 1.88 1.88 0 0 1 .32.72 2.11 2.11 0 0 0 .18.44 5.72 5.72 0 0 1 .36.96 3.29 3.29 0 0 0 .26.58 3.24 3.24 0 0 1 .2.54l.21.56c.07.19.16.4.21.6a3.36 3.36 0 0 0 .3.76 2.99 2.99 0 0 1 .25.66 4.05 4.05 0 0 0 .27.76c.1.2.16.44.25.66.06.18.15.35.22.53l.27.8a1.52 1.52 0 0 0 .1.25 3.2 3.2 0 0 1 .35.94 3.54 3.54 0 0 0 .33.9 1.62 1.62 0 0 1 .18.46 5.97 5.97 0 0 0 .35 1.03 4.81 4.81 0 0 1 .28.92.96.96 0 0 0 .11.32 2.23 2.23 0 0 1 .27.79 6.8 6.8 0 0 0 .36 1.16c.14.4.24.8.36 1.2a1.23 1.23 0 0 0 .1.3 3.9 3.9 0 0 1 .36 1.04 1.62 1.62 0 0 1-.08.97 3.08 3.08 0 0 0-.15.76 1.8 1.8 0 0 1-.15.55 4.33 4.33 0 0 0-.15.58l-.1.4-.17.6-.19.6a2.38 2.38 0 0 0-.07.36 1.16 1.16 0 0 1-.2.54.84.84 0 0 0-.13.44 1.6 1.6 0 0 1-.21.72 1.97 1.97 0 0 0-.14.42 1.81 1.81 0 0 1-.1.33 2.07 2.07 0 0 0-.2.63 2.14 2.14 0 0 1-.09.28l-.21.68c-.02.06-.02.13-.05.18a7.61 7.61 0 0 0-.36.96c-.04.16-.1.31-.16.47l-.2.55a2.32 2.32 0 0 0-.13.41 1.33 1.33 0 0 1-.2.54 1.84 1.84 0 0 0-.15.37 1.97 1.97 0 0 1-.11.32 2.2 2.2 0 0 0-.23.62 3.23 3.23 0 0 1-.16.42l-.15.38a3.17 3.17 0 0 1-.09.3 2.95 2.95 0 0 0-.24.67.4.4 0 0 1-.1.18.75.75 0 0 0-.2.5.76.76 0 0 1-.16.44 1.07 1.07 0 0 0-.16.35 2.4 2.4 0 0 1-.2.58 1.24 1.24 0 0 0-.1.37.83.83 0 0 1-.24.5.29.29 0 0 0-.06.08 7.72 7.72 0 0 1-.75 1.07l-.47.6c-.18.24-.4.46-.6.7l-.6.72-.56.65-.41.49c-.45.48-.85 1-1.33 1.45-.15.13-.26.3-.4.45l-.61.65-.39.46-.59.65-.18.21c-.08.1-.17.2-.26.28l-.62.56a3.15 3.15 0 0 1-.32.25c-.1.07-.16.04-.2-.08a.27.27 0 0 1 0-.05l-.18-1.16-.08-.42-.27-1.67-.21-1.44c-.06-.38-.12-.76-.16-1.15a165.67 165.67 0 0 1-.7-6.02c-.05-.5-.08-1.01-.12-1.52l-.12-1.34-.1-1.52z"/>
    </g>
  </g>
</svg>