<svg xmlns="http://www.w3.org/2000/svg" width="50.984" height="16.846" viewBox="0 0 50.984 16.846"><g transform="translate(15460 -7507.154)"><g transform="translate(-15515.595 7507.154)"><g transform="translate(55.594)"><path d="M286.8,16.846H240.558a2.371,2.371,0,0,1-2.368-2.368V2.368A2.371,2.371,0,0,1,240.558,0h46.249a2.371,2.371,0,0,1,2.368,2.368V14.478A2.374,2.374,0,0,1,286.8,16.846ZM240.558.25a2.12,2.12,0,0,0-2.118,2.118V14.478a2.12,2.12,0,0,0,2.118,2.118h46.249a2.118,2.118,0,0,0,2.116-2.118V2.368A2.119,2.119,0,0,0,286.807.25H240.558Z" transform="translate(-238.19)" fill="#175750"/></g><g transform="translate(59.122 2.704)"><path d="M263.987,30.082a8.314,8.314,0,0,1-.742,1.387c-.482.736-1.162,1.65-2.006,1.657-.749.007-.941-.488-1.957-.482s-1.228.49-1.977.484c-.841-.009-1.486-.833-1.97-1.568-1.35-2.054-1.491-4.464-.658-5.745a2.989,2.989,0,0,1,2.4-1.445c.892,0,1.455.49,2.193.49.716,0,1.153-.49,2.185-.49a2.916,2.916,0,0,1,2.2,1.16A2.514,2.514,0,0,0,263.987,30.082Z" transform="translate(-254.16 -21.691)" fill="#175750"/><g transform="translate(4.722)"><path d="M277.331,14.1a2.5,2.5,0,0,0,.557-1.858,2.716,2.716,0,0,0-1.749.941,2.33,2.33,0,0,0-.572,1.811A2.282,2.282,0,0,0,277.331,14.1Z" transform="translate(-275.54 -12.24)" fill="#175750"/></g></g><g transform="translate(71.126 2.73)"><g transform="translate(0 3.976)"><path d="M310.443,30.77l-1.933,5.69h.886l.576-1.747h1.871l.594,1.747h.91l-1.942-5.69Zm.459.934c.066.254.135.517.225.8l.521,1.509h-1.482l.515-1.517C310.758,32.252,310.831,31.985,310.9,31.7Z" transform="translate(-308.51 -30.679)" fill="#175750"/><path d="M334,37.44a1.613,1.613,0,0,0-1.369.656l-.035-.565h-.786l0,.073c.022.353.033.74.033,1.3v4.384h.861V41.239a1.51,1.51,0,0,0,1.177.506,1.767,1.767,0,0,0,1.3-.554,2.35,2.35,0,0,0,.576-1.657,2.284,2.284,0,0,0-.5-1.511A1.644,1.644,0,0,0,334,37.44Zm-.214.713c.767,0,1.111.711,1.111,1.416,0,.908-.437,1.473-1.144,1.473a1.041,1.041,0,0,1-1.014-.8,1.1,1.1,0,0,1-.031-.278v-.691a1.3,1.3,0,0,1,.026-.212l.013-.071A1.091,1.091,0,0,1,333.787,38.153Z" transform="translate(-326.664 -35.876)" fill="#175750"/><path d="M354.071,37.44a1.613,1.613,0,0,0-1.369.656l-.035-.565h-.786l0,.073c.024.353.033.74.033,1.3v4.384h.861V41.239a1.51,1.51,0,0,0,1.177.506,1.775,1.775,0,0,0,1.305-.554,2.36,2.36,0,0,0,.576-1.657,2.274,2.274,0,0,0-.5-1.511A1.644,1.644,0,0,0,354.071,37.44Zm-.214.713c.766,0,1.111.711,1.111,1.416,0,.908-.439,1.473-1.144,1.473a1.041,1.041,0,0,1-1.014-.8,1.1,1.1,0,0,1-.031-.278v-.691a1.324,1.324,0,0,1,.026-.214l.013-.068A1.091,1.091,0,0,1,353.857,38.153Z" transform="translate(-342.301 -35.876)" fill="#175750"/><path d="M379.71,32.86c-.8-.311-1.06-.557-1.06-1.007,0-.38.3-.764.978-.764a1.951,1.951,0,0,1,1.009.254l.073.044.243-.718-.049-.029a2.5,2.5,0,0,0-1.252-.281,1.661,1.661,0,0,0-1.864,1.575c0,.749.479,1.27,1.511,1.646.731.274,1,.552,1,1.031,0,.543-.42.879-1.093.879a2.363,2.363,0,0,1-1.241-.351l-.075-.049-.232.736.042.029a2.953,2.953,0,0,0,1.456.373c1.48,0,2-.9,2-1.674C381.161,33.759,380.741,33.267,379.71,32.86Z" transform="translate(-362.387 -30.36)" fill="#175750"/><path d="M395.362,33.42l-.844.265V34.4H393.9v.687h.618v2.107a1.6,1.6,0,0,0,.3,1.091,1.107,1.107,0,0,0,.833.327,1.98,1.98,0,0,0,.665-.1l.049-.018-.042-.689-.082.024a1.3,1.3,0,0,1-.4.046c-.333,0-.475-.212-.475-.707V35.083H396.4V34.4h-1.038V33.42Z" transform="translate(-375.039 -32.744)" fill="#175750"/><path d="M407.665,37.44a2.027,2.027,0,0,0-2.045,2.184,1.964,1.964,0,0,0,1.979,2.12h.009a2.03,2.03,0,0,0,2.045-2.193,2.178,2.178,0,0,0-.548-1.522A1.921,1.921,0,0,0,407.665,37.44Zm-.024.68c.775,0,1.126.755,1.126,1.456,0,.864-.482,1.489-1.144,1.489h-.009c-.654,0-1.126-.616-1.126-1.464C406.49,38.865,406.846,38.12,407.641,38.12Z" transform="translate(-384.171 -35.876)" fill="#175750"/><path d="M428.262,37.48l-.051-.013A.781.781,0,0,0,428,37.44a1.229,1.229,0,0,0-1.08.694l-.024-.6h-.773l0,.073c.022.34.033.722.033,1.239l-.009,2.812h.861V39.461a2.226,2.226,0,0,1,.024-.334.951.951,0,0,1,.906-.868,1.857,1.857,0,0,1,.232.015l.093.009v-.8Z" transform="translate(-400.143 -35.876)" fill="#175750"/><path d="M437.716,37.41a2.009,2.009,0,0,0-1.946,2.226,1.924,1.924,0,0,0,2.028,2.078,3.3,3.3,0,0,0,1.363-.261l.051-.024-.166-.641-.073.029a2.67,2.67,0,0,1-1.078.192,1.2,1.2,0,0,1-1.29-1.248l2.779.009.011-.055a1.906,1.906,0,0,0,.026-.36A1.734,1.734,0,0,0,437.716,37.41Zm-.057.654a.85.85,0,0,1,.632.241,1.22,1.22,0,0,1,.3.8h-1.964A1.1,1.1,0,0,1,437.659,38.064Z" transform="translate(-407.662 -35.853)" fill="#175750"/></g><path d="M308.51,12.975a6.463,6.463,0,0,1,.826-.055,1.853,1.853,0,0,1,1.213.331,1.173,1.173,0,0,1,.426.97,1.36,1.36,0,0,1-.431,1.047,2,2,0,0,1-1.327.387,6.492,6.492,0,0,1-.707-.031Zm.391,2.385a2.884,2.884,0,0,0,.391.015c.826,0,1.274-.415,1.274-1.142,0-.643-.4-1.038-1.213-1.038a2.455,2.455,0,0,0-.453.035Z" transform="translate(-308.51 -12.796)" fill="#175750"/><path d="M322.3,18.271a.971.971,0,0,1-1.029-.994,1,1,0,0,1,1.065-1.027.963.963,0,0,1,1.034.992,1,1,0,0,1-1.065,1.031h0Zm.013-.265a.687.687,0,0,0,.652-.755.656.656,0,1,0-.656.753h0Z" transform="translate(-318.452 -15.391)" fill="#175750"/><path d="M332.152,16.442l.289.978c.057.216.115.42.155.618h.013c.049-.2.119-.4.19-.616l.351-.983h.329l.333.967c.079.228.141.435.19.632h.013a5.322,5.322,0,0,1,.163-.627l.307-.972h.386l-.694,1.933h-.356l-.329-.923c-.075-.219-.137-.411-.192-.638h-.009a5.337,5.337,0,0,1-.194.643l-.347.919H332.4l-.647-1.933h.4Z" transform="translate(-326.617 -15.539)" fill="#175750"/><path d="M347.6,16.818c0-.2,0-.364-.018-.523h.347l.022.316h.009a.817.817,0,0,1,.711-.36.736.736,0,0,1,.76.824v1.155h-.391V17.114c0-.311-.128-.574-.5-.574a.555.555,0,0,0-.523.36.477.477,0,0,0-.026.163v1.166H347.6V16.818Z" transform="translate(-338.95 -15.391)" fill="#175750"/><path d="M358.82,12.36h.391V15.2h-.391Z" transform="translate(-347.708 -12.36)" fill="#175750"/><path d="M363.849,18.271a.971.971,0,0,1-1.029-.994,1,1,0,0,1,1.065-1.027.963.963,0,0,1,1.034.992,1,1,0,0,1-1.065,1.031h0Zm.013-.265a.689.689,0,0,0,.654-.755.657.657,0,1,0-.658.753h0Z" transform="translate(-350.824 -15.391)" fill="#175750"/><path d="M375.481,17.755a2.948,2.948,0,0,0,.031.464h-.351l-.035-.243h-.013a.823.823,0,0,1-.656.287.585.585,0,0,1-.656-.554c0-.468.462-.722,1.292-.72v-.04c0-.159-.049-.451-.488-.448a1.105,1.105,0,0,0-.563.144l-.088-.236a1.517,1.517,0,0,1,.711-.168.72.72,0,0,1,.822.791v.724Zm-.382-.523c-.426-.009-.91.06-.91.435a.326.326,0,0,0,.364.336.538.538,0,0,0,.528-.325.326.326,0,0,0,.018-.113Z" transform="translate(-359.379 -15.383)" fill="#175750"/><path d="M385.542,12.36V14.7c0,.172,0,.367.018.5h-.351l-.018-.336h-.009a.8.8,0,0,1-.729.38.922.922,0,0,1-.923-.983.964.964,0,0,1,.963-1.038.741.741,0,0,1,.649.292h.009V12.36Zm-.391,1.69a.6.6,0,0,0-.018-.152.567.567,0,0,0-.563-.4.661.661,0,0,0-.643.742.641.641,0,0,0,.634.718.579.579,0,0,0,.572-.42.557.557,0,0,0,.018-.152Z" transform="translate(-366.96 -12.36)" fill="#175750"/><path d="M400.159,18.271a.971.971,0,0,1-1.029-.994,1,1,0,0,1,1.065-1.027.963.963,0,0,1,1.034.992,1,1,0,0,1-1.065,1.031h0Zm.016-.265a.687.687,0,0,0,.652-.755.656.656,0,1,0-.656.753h0Z" transform="translate(-379.114 -15.391)" fill="#175750"/><path d="M410.808,16.818c0-.2,0-.364-.018-.523h.347l.022.316h.009a.816.816,0,0,1,.711-.36.736.736,0,0,1,.76.824v1.155h-.391V17.114c0-.311-.128-.574-.5-.574a.557.557,0,0,0-.523.36.478.478,0,0,0-.027.163v1.166h-.391V16.818Z" transform="translate(-388.199 -15.391)" fill="#175750"/><path d="M425.9,14.35v.464h.559v.267H425.9v1.043c0,.239.075.375.294.375a.816.816,0,0,0,.225-.024l.018.267a1.154,1.154,0,0,1-.347.049.588.588,0,0,1-.422-.148.707.707,0,0,1-.15-.508V15.079h-.334v-.267h.334v-.356Z" transform="translate(-399.41 -13.91)" fill="#175750"/><path d="M432.94,12.36h.391v1.206h.009a.656.656,0,0,1,.281-.247.819.819,0,0,1,.4-.1.734.734,0,0,1,.751.826V15.2h-.391V14.085c0-.316-.128-.574-.5-.574a.559.559,0,0,0-.524.351.39.39,0,0,0-.026.168V15.2h-.391V12.36Z" transform="translate(-405.457 -12.36)" fill="#175750"/><path d="M443.768,17.3a.656.656,0,0,0,.733.671,1.644,1.644,0,0,0,.594-.095l.071.247a1.934,1.934,0,0,1-.72.124.951.951,0,0,1-1.056-.974A.984.984,0,0,1,444.4,16.23a.845.845,0,0,1,.884.91.809.809,0,0,1-.013.168Zm1.14-.252a.519.519,0,0,0-.537-.572.607.607,0,0,0-.6.572Z" transform="translate(-413.599 -15.375)" fill="#175750"/></g></g></g></svg>