<svg id="Group_1005" data-name="Group 1005" xmlns="http://www.w3.org/2000/svg" width="23.945" height="23.944" viewBox="0 0 23.945 23.944">
  <path id="Path_26" data-name="Path 26" d="M16.81,0H7.134A7.14,7.14,0,0,0,0,7.136v9.678a7.139,7.139,0,0,0,7.134,7.131H16.81a7.142,7.142,0,0,0,7.134-7.136V7.136A7.145,7.145,0,0,0,16.81,0Zm4.723,16.813a4.725,4.725,0,0,1-4.723,4.724H7.134a4.725,4.725,0,0,1-4.723-4.724V7.136A4.725,4.725,0,0,1,7.134,2.412H16.81a4.725,4.725,0,0,1,4.723,4.724v9.678Z" transform="translate(0 0)" fill="#f8f8f7"/>
  <path id="Path_27" data-name="Path 27" d="M139.881,133a6.883,6.883,0,1,0,6.881,6.883A6.888,6.888,0,0,0,139.881,133Zm0,11.09a4.207,4.207,0,1,1,4.206-4.207A4.207,4.207,0,0,1,139.881,144.09Z" transform="translate(-127.911 -127.911)" fill="#f8f8f7"/>
  <ellipse id="Ellipse_12" data-name="Ellipse 12" cx="1.305" cy="1.305" rx="1.305" ry="1.305" transform="translate(16.974 4.419)" fill="#f8f8f7"/>
</svg>
