<svg xmlns="http://www.w3.org/2000/svg" width="23.833" height="17.875" viewBox="0 0 23.833 17.875">
  <path id="Path_29" data-name="Path 29" d="M23.336,2.079a10.335,10.335,0,0,1-1.644.5A4.63,4.63,0,0,0,23.046.634h0a.262.262,0,0,0-.4-.283h0a10.192,10.192,0,0,1-2.509.937.8.8,0,0,1-.157.016.7.7,0,0,1-.441-.152A5.469,5.469,0,0,0,16.145,0a6.18,6.18,0,0,0-1.626.225,4.719,4.719,0,0,0-3.352,3.231,4.491,4.491,0,0,0-.122,1.707A.16.16,0,0,1,11,5.295a.2.2,0,0,1-.139.058h-.017A13.94,13.94,0,0,1,1.582.89h0a.287.287,0,0,0-.441.031h0a4.3,4.3,0,0,0-.7,2.331,4.389,4.389,0,0,0,1.534,3.3A5.14,5.14,0,0,1,.8,6.143h0a.272.272,0,0,0-.4.209h0a4.638,4.638,0,0,0,3,4.274H3.29a5.309,5.309,0,0,1-.866-.073h0a.256.256,0,0,0-.308.314h0a5.018,5.018,0,0,0,4.066,3.158A10.222,10.222,0,0,1,.873,15.481H.281a.388.388,0,0,0-.383.267.35.35,0,0,0,.2.4,15.308,15.308,0,0,0,7.087,1.723,15.594,15.594,0,0,0,6.053-1.157,13.406,13.406,0,0,0,4.432-2.99,12.932,12.932,0,0,0,2.713-4.1A11.787,11.787,0,0,0,21.3,5.148V5.08a.774.774,0,0,1,.325-.613,9.581,9.581,0,0,0,2.045-2.022h0a.258.258,0,0,0-.337-.367Z" transform="translate(0.115)" fill="#f8f8f7"/>
</svg>
